/* XPM */
static char * dslCmDelete_xpm[] = {
"16 16 176 2",
"  	c #000000",
". 	c #030303",
"+ 	c #070707",
"@ 	c #010000",
"# 	c #030000",
"$ 	c #0B0A0A",
"% 	c #0C0C0C",
"& 	c #0A0B0B",
"* 	c #0C0B0B",
"= 	c #080606",
"- 	c #040202",
"; 	c #080808",
"> 	c #272727",
", 	c #494D4D",
"' 	c #596565",
") 	c #515D5D",
"! 	c #434444",
"~ 	c #484646",
"{ 	c #4B4A4A",
"] 	c #454444",
"^ 	c #474D4D",
"/ 	c #535F5F",
"( 	c #556060",
"_ 	c #3D3F3F",
": 	c #0E0D0D",
"< 	c #070606",
"[ 	c #444A4A",
"} 	c #918181",
"| 	c #D79292",
"1 	c #C69696",
"2 	c #717777",
"3 	c #4A4E4E",
"4 	c #4A4646",
"5 	c #565F5F",
"6 	c #928888",
"7 	c #D49898",
"8 	c #BE9191",
"9 	c #646262",
"0 	c #1E2323",
"a 	c #020000",
"b 	c #505F5F",
"c 	c #C79595",
"d 	c #FF2626",
"e 	c #C88585",
"f 	c #657777",
"g 	c #476262",
"h 	c #8F8A8A",
"i 	c #EB6868",
"j 	c #FF1F1F",
"k 	c #FA5858",
"l 	c #807878",
"m 	c #213131",
"n 	c #050101",
"o 	c #485555",
"p 	c #AC9292",
"q 	c #FF3B3B",
"r 	c #FF0000",
"s 	c #FF2727",
"t 	c #CA8989",
"u 	c #AA9A9A",
"v 	c #E76969",
"w 	c #FF0101",
"x 	c #FF0404",
"y 	c #E47171",
"z 	c #6D7272",
"A 	c #1D2929",
"B 	c #3F3E3E",
"C 	c #616B6B",
"D 	c #B28E8E",
"E 	c #FD4141",
"F 	c #FF1818",
"G 	c #FF3434",
"H 	c #FF0505",
"I 	c #FF0606",
"J 	c #E36B6B",
"K 	c #878787",
"L 	c #465252",
"M 	c #232323",
"N 	c #0A0A0A",
"O 	c #454343",
"P 	c #494949",
"Q 	c #577070",
"R 	c #B89494",
"S 	c #FF2B2B",
"T 	c #FF0303",
"U 	c #E96868",
"V 	c #7F8282",
"W 	c #425757",
"X 	c #444646",
"Y 	c #292828",
"Z 	c #010101",
"` 	c #090A0A",
" .	c #474646",
"..	c #4B4747",
"+.	c #475F5F",
"@.	c #A29696",
"#.	c #FC3D3D",
"$.	c #FC0000",
"%.	c #FF0F0F",
"&.	c #DE8181",
"*.	c #657D7D",
"=.	c #384646",
"-.	c #484545",
";.	c #2A2A2A",
">.	c #414040",
",.	c #918888",
"'.	c #E86060",
").	c #FF1616",
"!.	c #FB2E2E",
"~.	c #C28B8B",
"{.	c #677979",
"].	c #414848",
"^.	c #262525",
"/.	c #070505",
"(.	c #444B4B",
"_.	c #938686",
":.	c #EC5D5D",
"<.	c #FF0A0A",
"[.	c #E46E6E",
"}.	c #D38C8C",
"|.	c #F53B3B",
"1.	c #FF2A2A",
"2.	c #C38686",
"3.	c #5A6666",
"4.	c #4D5B5B",
"5.	c #CA9595",
"6.	c #FF2323",
"7.	c #FF0B0B",
"8.	c #DE7070",
"9.	c #787F7F",
"0.	c #587676",
"a.	c #B18A8A",
"b.	c #FD3737",
"c.	c #FD6161",
"d.	c #7B7676",
"e.	c #1D2D2D",
"f.	c #050303",
"g.	c #4C5757",
"h.	c #AC8E8E",
"i.	c #F46D6D",
"j.	c #E27E7E",
"k.	c #838585",
"l.	c #445757",
"m.	c #3A4444",
"n.	c #5E7272",
"o.	c #B78C8C",
"p.	c #FA7070",
"q.	c #DF8080",
"r.	c #726E6E",
"s.	c #1F2828",
"t.	c #060606",
"u.	c #353636",
"v.	c #5A5B5B",
"w.	c #717171",
"x.	c #646C6C",
"y.	c #465050",
"z.	c #464848",
"A.	c #4A4848",
"B.	c #424848",
"C.	c #546161",
"D.	c #717272",
"E.	c #6C6C6C",
"F.	c #4C4D4D",
"G.	c #161616",
"H.	c #141717",
"I.	c #132020",
"J.	c #111B1B",
"K.	c #1A1A1A",
"L.	c #1F1E1E",
"M.	c #202020",
"N.	c #1D1C1C",
"O.	c #141919",
"P.	c #111F1F",
"Q.	c #141D1D",
"R.	c #121212",
"S.	c #020101",
"                                ",
"    . + @ # $ % & * = @ - ;     ",
"  . > , ' ) ! ~ { ] ^ / ( _ :   ",
"  < [ } | 1 2 3 4 5 6 7 8 9 0   ",
"  a b c d d e f g h i j k l m   ",
"  n o p q r s t u v w x y z A   ",
"  $ B C D E r F G H I J K L M   ",
"  N O P Q R S r r T U V W X Y Z ",
"  `  ...+.@.#.r $.%.&.*.=.-.;.  ",
"  $ >.5 ,.'.T I ).r !.~.{.].^.Z ",
"  /.(._.:.r <.[.}.|.r 1.2.3.0   ",
"  @ 4.5.6.7.8.9.0.a.b.I c.d.e.  ",
"  f.g.h.i.j.k.l.m.n.o.p.q.r.s.  ",
"  t.u.v.w.x.y.z.A.B.C.D.E.F.G.  ",
"    = H.I.J.K.L.M.N.O.P.Q.R.S.  ",
"                                "};
