/* XPM */
static char * C:\Users\Daniel\Documents\maya\2013_x64\prefs\icons\dslSieIcon_xpm[] = {
"32 32 250 2",
"  	c #000000",
". 	c #090909",
"+ 	c #7E6F6A",
"@ 	c #534846",
"# 	c #736561",
"$ 	c #5A4E4B",
"% 	c #675A57",
"& 	c #BCA59E",
"* 	c #7C6C68",
"= 	c #AB9690",
"- 	c #867570",
"; 	c #998681",
"> 	c #7E6F6B",
", 	c #A38F89",
"' 	c #3E3633",
") 	c #191514",
"! 	c #4D4340",
"~ 	c #AB9791",
"{ 	c #BCA69F",
"] 	c #71645F",
"^ 	c #867671",
"/ 	c #998781",
"( 	c #C0AAA2",
"_ 	c #C3ACA5",
": 	c #BEA8A0",
"< 	c #796B66",
"[ 	c #2C2523",
"} 	c #A4918A",
"| 	c #6C5F5B",
"1 	c #2B2523",
"2 	c #B49F98",
"3 	c #80716C",
"4 	c #93817C",
"5 	c #CCB4AB",
"6 	c #C4ADA5",
"7 	c #BAA49D",
"8 	c #CCB4AC",
"9 	c #B29C95",
"0 	c #B5A098",
"a 	c #B5A099",
"b 	c #796B67",
"c 	c #675B57",
"d 	c #756762",
"e 	c #B19D96",
"f 	c #6B5E59",
"g 	c #A28F88",
"h 	c #605450",
"i 	c #171312",
"j 	c #AA968F",
"k 	c #7E706A",
"l 	c #A7938B",
"m 	c #887775",
"n 	c #160F30",
"o 	c #000015",
"p 	c #3C3344",
"q 	c #AD9992",
"r 	c #C8B0A8",
"s 	c #B59F98",
"t 	c #B7A19A",
"u 	c #7B6C67",
"v 	c #615652",
"w 	c #91807A",
"x 	c #A28E88",
"y 	c #483F3C",
"z 	c #554A46",
"A 	c #B29D96",
"B 	c #6A5C5E",
"C 	c #373A00",
"D 	c #585A00",
"E 	c #060900",
"F 	c #0F0C14",
"G 	c #A99590",
"H 	c #BEA79F",
"I 	c #B39D96",
"J 	c #786965",
"K 	c #675B56",
"L 	c #756661",
"M 	c #B19C95",
"N 	c #6B5D59",
"O 	c #A28E87",
"P 	c #756662",
"Q 	c #887872",
"R 	c #80716B",
"S 	c #01000F",
"T 	c #474900",
"U 	c #FFFF00",
"V 	c #EAEA00",
"W 	c #070900",
"X 	c #1C171D",
"Y 	c #4E4441",
"Z 	c #413937",
"` 	c #2C2625",
" .	c #776965",
"..	c #2B2423",
"+.	c #A6928B",
"@.	c #83736E",
"#.	c #B0B100",
"$.	c #5E5E00",
"%.	c #9A8781",
"&.	c #3B3330",
"*.	c #B29C96",
"=.	c #3C3431",
"-.	c #8E7D77",
";.	c #B8A29A",
">.	c #695C57",
",.	c #666600",
"'.	c #F5F500",
").	c #1C1C00",
"!.	c #0B0B11",
"~.	c #282828",
"{.	c #222222",
"].	c #171717",
"^.	c #B19D95",
"/.	c #B39E97",
"(.	c #B9A29B",
"_.	c #B8A29B",
":.	c #94837D",
"<.	c #524945",
"[.	c #13100F",
"}.	c #0B0B0A",
"|.	c #5F5F00",
"1.	c #A0A000",
"2.	c #262600",
"3.	c #000006",
"4.	c #4C4C4F",
"5.	c #5F5F5F",
"6.	c #575757",
"7.	c #3A3A3A",
"8.	c #B49E97",
"9.	c #B49F99",
"0.	c #B9A39B",
"a.	c #93817B",
"b.	c #514844",
"c.	c #12100F",
"d.	c #0B0B0B",
"e.	c #2F2F2F",
"f.	c #535353",
"g.	c #313135",
"h.	c #000013",
"i.	c #00000B",
"j.	c #04041A",
"k.	c #444444",
"l.	c #565655",
"m.	c #4C4C4C",
"n.	c #333333",
"o.	c #C4ADA6",
"p.	c #C6AFA7",
"q.	c #C5AEA6",
"r.	c #CAB2A9",
"s.	c #BAA49C",
"t.	c #534946",
"u.	c #100E0E",
"v.	c #2E2E2E",
"w.	c #4E4E4E",
"x.	c #5A5A5A",
"y.	c #525252",
"z.	c #555555",
"A.	c #505050",
"B.	c #49494A",
"C.	c #545454",
"D.	c #4D4D4D",
"E.	c #343434",
"F.	c #776964",
"G.	c #B19B95",
"H.	c #B39D95",
"I.	c #C8B1A7",
"J.	c #91807B",
"K.	c #2F2640",
"L.	c #181131",
"M.	c #675A5F",
"N.	c #9B8882",
"O.	c #524844",
"P.	c #100E0D",
"Q.	c #585858",
"R.	c #515151",
"S.	c #4B4B4B",
"T.	c #4F4F4F",
"U.	c #B19C96",
"V.	c #817271",
"W.	c #000001",
"X.	c #242600",
"Y.	c #333600",
"Z.	c #282324",
"`.	c #1D1A19",
" +	c #0C0C0C",
".+	c #313131",
"++	c #BDA69F",
"@+	c #B9A29D",
"#+	c #01000D",
"$+	c #4B4C00",
"%+	c #B0B000",
"&+	c #323232",
"*+	c #595959",
"=+	c #C7B0A8",
"-+	c #917E82",
";+	c #CFD100",
">+	c #202100",
",+	c #08081C",
"'+	c #786A65",
")+	c #41393B",
"!+	c #A0A100",
"~+	c #F3F300",
"{+	c #070700",
"]+	c #1F1F32",
"^+	c #606060",
"/+	c #342E2C",
"(+	c #0E0C0B",
"_+	c #0A0A00",
":+	c #999900",
"<+	c #BFBF00",
"[+	c #2B2B00",
"}+	c #000005",
"|+	c #A0A0A0",
"1+	c #373737",
"2+	c #181825",
"3+	c #010108",
"4+	c #040406",
"5+	c #07071A",
"6+	c #7A7A7A",
"7+	c #A5A5A4",
"8+	c #FFFFFF",
"9+	c #070707",
"0+	c #7E7E7E",
"a+	c #D2D2D3",
"b+	c #CFCFD0",
"c+	c #EFEFEF",
"d+	c #F3F3F3",
"e+	c #707070",
"f+	c #717171",
"g+	c #6D6D6D",
"h+	c #686868",
"i+	c #E7E7E7",
"j+	c #D0D0D0",
"k+	c #DBDBDB",
"l+	c #5C5C5C",
"m+	c #5E5E5E",
"n+	c #616161",
"o+	c #C4C4C4",
"p+	c #363636",
"q+	c #949494",
"r+	c #CFCFCF",
"s+	c #7C7C7C",
"t+	c #ACACAC",
"u+	c #888888",
"v+	c #B8B8B8",
"w+	c #DCDCDC",
"x+	c #E8E8E8",
"y+	c #454545",
"z+	c #A3A3A3",
"A+	c #464646",
"                          . . . . . .                           ",
"  + + + + + @     # + + + + + + + + $     % + + + + + + + + +   ",
"  + & & & & *     = & & & & & & & & -     ; & & & & & & & & +   ",
"  > , '   ) !     ~ { ]       ! , { ^     / { ( _ : & { { { >   ",
"  < [             } |           1 2 3     4 5 6 7 8 _ 9 0 a b   ",
"  c     d e f     g h   i d d d d j k     l m n o p q r s t u   ",
"  v     w e d     g x y         z A +     B   C D E F G H I J   ",
"  K     L M N     O L P Q x h     w R     S T U U V W X Y Z `   ",
"   ...            g h             +.@.      #.U U U $.          ",
"   .%.&.  i Q     g *.d       =.-.;.>.      ,.U U '.).!.~.{.].  ",
"   .*.A A e A A ^.A *.A /.s (._.:.<.[.    }.  |.1.2.3.4.5.6.7.  ",
"   .*.A A e I I ^.9 8.9.0.0.a.b.c.    d.e.f.g.h.i.j.k.l.m.m.n.  ",
"   .A M M o.p.q.r.s.t _.4 t.u.    d.v.w.x.y.z.A.B.C.C.m.D.D.E.  ",
"  F.G.H.I.J.K.L.M.s N.O.P.    d.e.w.Q.R.S.m.m.T.y.D.m.D.m.m.n.  ",
"   .U.r.V.W.X.Y.  Z.`.     +.+w.Q.y.m.m.D.m.D.D.D.D.D.D.D.D.E.  ",
"   .++@+#+$+U U %+    d.&+T.*+R.m.D.D.D.D.m.m.D.D.D.D.D.D.D.E.  ",
"  b =+-+  ;+U U U >+,+6.*+A.m.D.D.D.D.D.D.m.m.D.D.D.D.D.D.D.E.  ",
"  '+w )+  !+U U ~+{+]+^+S.m.D.D.D.D.D.D.D.m.m.D.D.D.D.D.D.D.E.  ",
"  /+(+    _+:+<+[+}+m.R.D.m.D.D.|+|+|+D.D.m.m.D.D.D.D.D.D.D.E.  ",
"      d.1+2+3+4+5+6+7+|+D.m.D.D.8+8+8+D.D.|+|+|+|+|+|+|+|+|+E.  ",
"  9+.+T.x.0+a+b+c+8+8+8+d+e+D.D.f+g+h+D.D.i+8+8+8+8+8+8+8+8+E.  ",
"  E.*+A.6.d+8+8+j+|+j+8+8+k+D.D.l+m+n+D.D.i+8+8+o+|+|+|+|+|+E.  ",
"  p+m.m.e+8+8+8+|+D.*+|+|+|+D.D.8+8+8+D.D.i+8+8+q+D.D.D.D.D.E.  ",
"  n.m.m.Q.8+8+8+8+8+r+|+e+m.m.m.8+8+8+m.m.i+8+8+8+8+8+8+8+s+n.  ",
"  E.m.m.m.t+8+8+8+8+8+8+8+|+D.D.8+8+8+D.D.i+8+8+8+8+8+8+8+s+E.  ",
"  E.m.m.m.D.q+k+8+8+8+8+8+8+f+D.8+8+8+D.D.i+8+8+q+D.D.D.D.D.E.  ",
"  E.D.D.f+|+|+q+D.u+v+8+8+8+s+D.8+8+8+D.D.i+8+8+q+D.D.D.D.D.E.  ",
"  E.m.m.e+8+8+d+s+D.q+8+8+8+f+D.8+8+8+D.D.i+8+8+q+D.D.D.D.D.E.  ",
"  p+T.T.T.w+8+8+8+8+8+8+8+o+A.A.8+8+8+A.A.x+8+8+8+8+8+8+8+8+y+  ",
"  1+y.y.y.y.z+x+8+8+8+x+z+y.y.y.8+8+8+y.y.x+8+8+8+8+8+8+8+8+A+  ",
"  1+1+1+1+1+1+1+1+1+1+1+1+1+1+1+1+1+1+1+1+1+1+1+1+1+1+1+1+1+1+  ",
"                                                                "};
