/* XPM */
static char *magick[] = {
/* columns rows colors chars-per-pixel */
"32 32 255 2",
"   c #1c171e",
".  c #1b1a1b",
"X  c #1e1a21",
"o  c #211b25",
"O  c #2a1c31",
"+  c #301c3a",
"@  c #2c252f",
"#  c #2d2234",
"$  c #312636",
"%  c #33233b",
"&  c #332b37",
"*  c #371f44",
"=  c #362042",
"-  c #3a2446",
";  c #3d234b",
":  c #3c2e44",
">  c #3f2b4b",
",  c #40244f",
"<  c #42294f",
"1  c #472659",
"2  c #452b53",
"3  c #49265b",
"4  c #492f57",
"5  c #4b2b5b",
"6  c #432653",
"7  c #403247",
"8  c #45364d",
"9  c #433a48",
"0  c #463450",
"q  c #4c3757",
"w  c #4f385b",
"e  c #4c3956",
"r  c #50345e",
"t  c #533b5f",
"y  c #4f2763",
"u  c #4d2861",
"i  c #512866",
"p  c #562b6c",
"a  c #582b6f",
"s  c #5d2e76",
"d  c #5f2d7a",
"f  c #553b62",
"g  c #553665",
"h  c #5d3373",
"j  c #612f7b",
"k  c #603576",
"l  c #64337d",
"z  c #603a73",
"x  c #663e7c",
"c  c #4f4355",
"v  c #54485b",
"b  c #574062",
"n  c #5a4564",
"m  c #5f466b",
"M  c #5f5068",
"N  c #634c6f",
"B  c #634274",
"V  c #654a73",
"C  c #664379",
"Z  c #62536b",
"A  c #695175",
"S  c #6f527e",
"D  c #6d5877",
"F  c #6f5d78",
"G  c #735d7f",
"H  c #74607e",
"J  c #726977",
"K  c #672f85",
"L  c #6d2294",
"P  c #663182",
"I  c #693385",
"U  c #6e358c",
"Y  c #6c3c85",
"T  c #6f3b8a",
"R  c #74299b",
"E  c #70358f",
"W  c #723592",
"Q  c #763698",
"!  c #743a92",
"~  c #773a98",
"^  c #79359d",
"/  c #783f96",
"(  c #7b3a9d",
")  c #7c2ea5",
"_  c #7d35a3",
"`  c #7e3ba1",
"'  c #6d4184",
"]  c #72418b",
"[  c #714c84",
"{  c #764b8c",
"}  c #774691",
"|  c #784594",
" . c #7e459d",
".. c #7b4d93",
"X. c #7e4899",
"o. c #735284",
"O. c #775688",
"+. c #79538d",
"@. c #7b5b8b",
"#. c #7e5b91",
"$. c #813ca5",
"%. c #853daa",
"&. c #863cac",
"*. c #883eaf",
"=. c #8333ad",
"-. c #8a37b5",
";. c #8a3eb1",
":. c #8c3cb6",
">. c #8e3cb9",
",. c #923fbe",
"<. c #903fba",
"1. c #943fc1",
"2. c #824c9d",
"3. c #815697",
"4. c #83549c",
"5. c #825c95",
"6. c #865b9d",
"7. c #8243a3",
"8. c #8641aa",
"9. c #844aa3",
"0. c #8944ad",
"q. c #8b4aae",
"w. c #8e41b6",
"e. c #8b43b2",
"r. c #8f40b9",
"t. c #8e4db0",
"y. c #8951a6",
"u. c #8c52ab",
"i. c #8a5ba3",
"p. c #8d5aa8",
"a. c #8e50b0",
"s. c #9341be",
"d. c #9442bf",
"f. c #9243bb",
"g. c #924db5",
"h. c #954cbc",
"j. c #915cad",
"k. c #9354b4",
"l. c #945cb1",
"z. c #9953bd",
"x. c #985fb5",
"c. c #995aba",
"v. c #836394",
"b. c #866895",
"n. c #886997",
"m. c #8c6b9e",
"M. c #8a649d",
"N. c #83708d",
"B. c #917a9d",
"V. c #8d64a3",
"C. c #9167a7",
"Z. c #9264ab",
"A. c #9662b2",
"S. c #9a63b6",
"D. c #9d63bb",
"F. c #9b6ab4",
"G. c #9072a0",
"H. c #957ba1",
"J. c #9872ac",
"K. c #987ba7",
"L. c #987ba8",
"P. c #9d71b3",
"I. c #9f7eb1",
"U. c #a06ebb",
"Y. c #a074b7",
"T. c #a373bd",
"R. c #a17bb6",
"E. c #a67cbc",
"W. c #9542c1",
"Q. c #9646c1",
"!. c #9743c4",
"~. c #9749c1",
"^. c #9943c4",
"/. c #9a4dc3",
"(. c #9b4dc4",
"). c #9a4ac4",
"_. c #9f4eca",
"`. c #9c44ca",
"'. c #9d53c4",
"]. c #9e59c2",
"[. c #a057c7",
"{. c #a159c7",
"}. c #a25cc6",
"|. c #a55fc9",
" X c #a463c6",
".X c #a765c9",
"XX c #a867ca",
"oX c #aa6bcb",
"OX c #a675c0",
"+X c #ae71cd",
"@X c #a978c2",
"#X c #ac78c8",
"$X c #b177ce",
"%X c #b174d1",
"&X c #94869c",
"*X c #9f89ac",
"=X c #a087ad",
"-X c #a081b0",
";X c #a785bb",
":X c #a48cb1",
">X c #ab8bbb",
",X c #a984bc",
"<X c #a491af",
"1X c #a59caa",
"2X c #a791b3",
"3X c #ab95b6",
"4X c #ad99b8",
"5X c #ab91b9",
"6X c #b098bd",
"7X c #b8a9bf",
"8X c #b9b3bc",
"9X c #ad81c4",
"0X c #af8bc3",
"qX c #b086c6",
"wX c #b686ce",
"eX c #b28cc6",
"rX c #b48cc8",
"tX c #b987d4",
"yX c #bb84d8",
"uX c #bb8ad5",
"iX c #b494c5",
"pX c #b799c7",
"aX c #ba93ce",
"sX c #bf9ed1",
"dX c #ba93d1",
"fX c #bda1cc",
"gX c #bdb2c4",
"hX c #c09dd4",
"jX c #c59bda",
"kX c #c1a7ce",
"lX c #c1a8cd",
"zX c #c2a4d1",
"xX c #c5add2",
"cX c #ccafdc",
"vX c #c1b9c6",
"bX c #c3b8c9",
"nX c #c8becd",
"mX c #cdb2db",
"MX c #cfbbd9",
"NX c #c9b1d4",
"BX c #d3b5e3",
"VX c #cdc4d1",
"CX c #cfc9d3",
"ZX c #d2ccd5",
"AX c #d7ccdd",
"SX c #d7d2d9",
"DX c #d9d4dc",
"FX c #dbc9e5",
"GX c #dfdde0",
"HX c #e5e3e6",
"JX c Gray92",
"KX c #f2f3f1",
"LX c #f8f9f7",
"PX c Gray100",
"IX c #fbfdfa",
/* pixels */
"{././././././././.'./.z.} { ]././././././././.;.7. . .7.*.)./.{.",
").d.d.d.d.d.s.Q.{.%Xc.V & h 0.W.d.d.d.d.W.,.Q L.bXSXDXnX=X~ >.).",
"/.d.d.d.d.d./.].].D.A & 2 , W W.W.d.d.d.W.Q gXPXPXPXPXPXPXCX/ ~.",
"/.d.d.d.d.W.'.'.q.f o 3 l = p ;.W.d.d.W.=.K.PXPXPXJXHXPXPXPX4X%.",
"/.d.d.d.s./.oXD.b X r < k 4 u ` s.W.d.W._ VXPXPXHX' h GXPXPXZX7.",
"/.d.d.W.{.oXl.f . p 4.$ h x 6 W *.W.d.W.;.J.2X7X-XL { JXPXPXnX7.",
"/.d.s./.oXp.q . 1 ).m.# d ( 6 P $.r.W.d.d.-.) _ R 5.HXPXPXLXM.r.",
"/.d.1.'.V.B % 5 r.f.G % P h.5 u U %.W.d.d.W.!.-.4.JXPXPXKXG._ (.",
"/.W.g.6.o.> 2 0.^.t.Z - W _.x % l ;.W.d.d.d.W.^ VXPXPXJX5.) W./.",
").].C.o.8 % ~ W.W.9.c 3 $.!.7.4 U w.W.d.d.d.W.( HXPXPX:XR !.d./.",
"[.+XV.0 % ! ^.W.,.2.9 p ;.W.s.U W w.W.d.d.d.W.$.@.F H | <.W.d./.",
"|.i.f q ~ ^.W.d.<.9.7 d ;.d.W.;.%.%.f.W.d.W.,.9.VXZXZXL.=.W.d./.",
"7.B [ e.^.W.d.;.%.2.: U ;.W.d.W.W.;.e.W.d.W.,.} IXPXPX3X) W.d./.",
"Z.Z.e.W.d.d.d.%.` #.- E w.W.d.d.d.d.d.d.d.W.,.X.KXIXIX3X) W.d./.",
".X).,.d.d.d.s.%.7.O.% U w.W.d.d.d.d.d.d.d.d.W.0.C.V.V.u.>.W.d./.",
").d.d.d.d.W.s.%.7.S % W f.W.d.d.d.s.s.d.W.W.W.d.>.-.-.,.W.d.d./.",
"/.d.d.d.d.d.w.&.9.A - ( s.W.d.d.Q.~.Q.d.>.>.>.,.W.W.1.1.W.W.W./.",
"'.d.d.d.,.W.;.&.2.m ; $.s.W.d.d.'.oX+XU.R.I.Z.t.[.].c.c.0.&.f./.",
"[.Q.'.].'./.*.*...e 3 %.d.d.d.d.d.).h.] n.<X3X5XiXhXzXfX,XF.w./.",
".X{./.{. X{.g.e.[ : s d.d.d.d.d.d.d.s.&.%.8.0.9.5.iXhX#XrX@Xh./.",
"oX{.].'.{.].g.e.C % P ^.d.d.d.d.d.s.d.Q.`.).8.V.*XeXoXS.lXD.,./.",
"[./.).h. XD.j.| f # E `.W.W.d.d.W.).(.z.u.m.1XbXaXc._ eXzXh.s./.",
"oXS.].p.3.+.T Y e ; E ( :.W.W./.'.t.4.B.8XDXmX@Xq._ ..xXA.Q.d./.",
"$Xi.j.F.n $ 3 } 8 u I ; ; j &.9.v.&XvXAXlXP.9.0.s.W :X>Xk.d.d./.",
"yXm.q : o u W ..: a U a d Y v.2XNXcXiX4.K ^ :.W.&.+.xXT.A.$.W./.",
";XM   = u j l [ > P $.9.OXH.6XaXY...U _ f.W.W.s.^ Y.9Xl.9.;.W./.",
"N.& O p I I T h 5 X..XT.E.b.@.4.! $.s.W.W.d.d.<.t.qXU.y.%.W.d./.",
"J @ O P U ~ s.U ] k.k.Q.0.g k e.W.W.W.d.d.W.*.` S.U.P.$.s.W.d./.",
"&Xv O i P U P U P P j a 4 g j.}.Q.d.d.d.W.;.` ( u.y.9.;.W.d.d./.",
"MXH.S w = - ; a u * + % 2 { oXoX/.,.s.d.d.;.%.;.*.e.*.d.d.d.d./.",
"FX>X>X0Xv.n e b N D V +.p.].'.'.'.{./.s.,.s.s.s.,.W.W.d.d.d.d.).",
"FXkXpXmXBXsXaXdXaXaXwXuXjXtX$XoXXX.X{..XoX.X{.{.{.{.'././././.{."
};
