/* XPM */
static char *magick[] = {
/* columns rows colors chars-per-pixel */
"32 32 246 2",
"   c #1c171e",
".  c #1b1a1b",
"X  c #1e1a21",
"o  c #211b25",
"O  c #2a1c31",
"+  c #301c3a",
"@  c #2c252f",
"#  c #2d2234",
"$  c #312636",
"%  c #332639",
"&  c #33223d",
"*  c #332b37",
"=  c #371f44",
"-  c #362042",
";  c #3a2446",
":  c #3d234b",
">  c #3c2e44",
",  c #3f2b4b",
"<  c #40244f",
"1  c #42294f",
"2  c #432653",
"3  c #472659",
"4  c #452b53",
"5  c #49265b",
"6  c #492f57",
"7  c #4b2b5b",
"8  c #403247",
"9  c #45364d",
"0  c #433a48",
"q  c #463450",
"w  c #4c3757",
"e  c #4f385b",
"r  c #4c3956",
"t  c #50345e",
"y  c #533b5f",
"u  c #4f2763",
"i  c #4d2861",
"p  c #512866",
"a  c #562b6c",
"s  c #582b6f",
"d  c #5d2e76",
"f  c #5f2d7a",
"g  c #553665",
"h  c #553b62",
"j  c #5e3573",
"k  c #612f7b",
"l  c #603576",
"z  c #64337d",
"x  c #603a73",
"c  c #663e7c",
"v  c #4f4355",
"b  c #54485b",
"n  c #574062",
"m  c #5a4564",
"M  c #5f466b",
"N  c #5f5068",
"B  c #634c6f",
"V  c #634274",
"C  c #664379",
"Z  c #654a73",
"A  c #62536b",
"S  c #695175",
"D  c #6f527e",
"F  c #6d5877",
"G  c #735d7f",
"H  c #726977",
"J  c #672f85",
"K  c #663182",
"L  c #693385",
"P  c #6d358a",
"I  c #6f358d",
"U  c #6b3489",
"Y  c #6c3c85",
"T  c #6f3b8a",
"R  c #70358f",
"E  c #713591",
"W  c #743694",
"Q  c #733592",
"!  c #733a91",
"~  c #773a98",
"^  c #79359d",
"/  c #7c3a9f",
"(  c #7a3a9b",
")  c #7d36a2",
"_  c #7e3aa1",
"`  c #7f3da1",
"'  c #72418b",
"]  c #714c84",
"[  c #754b8b",
"{  c #774691",
"}  c #794295",
"|  c #7b4d93",
" . c #7e489a",
".. c #735284",
"X. c #775688",
"o. c #79538d",
"O. c #7c588e",
"+. c #7e5b91",
"@. c #803aa5",
"#. c #813ea5",
"$. c #8439ab",
"%. c #853bad",
"&. c #853daa",
"*. c #873ead",
"=. c #833ca8",
"-. c #883eaf",
";. c #8a3eb1",
":. c #8d3eb6",
">. c #8f3dba",
",. c #933fbe",
"<. c #903fba",
"1. c #943fc1",
"2. c #824c9d",
"3. c #815697",
"4. c #83549c",
"5. c #835c97",
"6. c #865b9d",
"7. c #8144a0",
"8. c #8343a4",
"9. c #8641aa",
"0. c #844aa3",
"q. c #8944ad",
"w. c #8b4aae",
"e. c #8a41b2",
"r. c #8e40b6",
"t. c #8c45b2",
"y. c #8f40b9",
"u. c #8e4db0",
"i. c #8951a6",
"p. c #8d52ac",
"a. c #8a5ba3",
"s. c #8d5aa8",
"d. c #8e50b0",
"f. c #9041ba",
"g. c #9341be",
"h. c #9442bf",
"j. c #9447bd",
"k. c #924db5",
"l. c #954cbc",
"z. c #915cad",
"x. c #9456b6",
"c. c #9153b2",
"v. c #945cb1",
"b. c #9953bd",
"n. c #985fb5",
"m. c #995aba",
"M. c #836394",
"N. c #866895",
"B. c #886997",
"V. c #8c6b9e",
"C. c #83708d",
"Z. c #917a9d",
"A. c #8d62a4",
"S. c #9264ab",
"D. c #9662b2",
"F. c #9a63b6",
"G. c #9d63bb",
"H. c #9b6ab4",
"J. c #957ba1",
"K. c #9d71b3",
"L. c #9f7cb2",
"P. c #a06ebb",
"I. c #a074b7",
"U. c #a373bd",
"Y. c #a17bb6",
"T. c #a67cbc",
"R. c #9542c1",
"E. c #9646c1",
"W. c #9743c4",
"Q. c #9749c1",
"!. c #9944c5",
"~. c #9943c5",
"^. c #994ac2",
"/. c #9a4ac5",
"(. c #9a4dc3",
"). c #9b4cc4",
"_. c #9c49c7",
"`. c #9f4eca",
"'. c #9c44ca",
"]. c #9a51c1",
"[. c #9d51c5",
"{. c #9e55c5",
"}. c #9d54c3",
"|. c #9e59c1",
" X c #9f5ac4",
".X c #a057c7",
"XX c #a159c7",
"oX c #a25cc6",
"OX c #a55fc9",
"+X c #a463c6",
"@X c #a662c9",
"#X c #a766c9",
"$X c #a867ca",
"%X c #aa6bcb",
"&X c #a675c0",
"*X c #ae71cd",
"=X c #a978c2",
"-X c #ac78c8",
";X c #b177ce",
":X c #b174d1",
">X c #93819d",
",X c #958a9a",
"<X c #9f89ac",
"1X c #a785bb",
"2X c #a489b1",
"3X c #ab8bbb",
"4X c #a984bc",
"5X c #a491af",
"6X c #a59caa",
"7X c #a791b3",
"8X c #aa96b4",
"9X c #ab91b9",
"0X c #b098bd",
"qX c #b9b3bc",
"wX c #ad81c4",
"eX c #af8bc3",
"rX c #b086c6",
"tX c #b686ce",
"yX c #b28cc6",
"uX c #b48cc8",
"iX c #b987d4",
"pX c #bb84d8",
"aX c #bb8ad5",
"sX c #b494c5",
"dX c #b799c7",
"fX c #ba93ce",
"gX c #ba93d1",
"hX c #bf9ed1",
"jX c #bda1cc",
"kX c #c09dd4",
"lX c #c59bda",
"zX c #c1a7ce",
"xX c #c1a8cd",
"cX c #c2a4d1",
"vX c #c5add2",
"bX c #ccafdc",
"nX c #c1b9c6",
"mX c #c3b8ca",
"MX c #c9b1d4",
"NX c #cdb2db",
"BX c #cfbbd9",
"VX c #d3b5e3",
"CX c #d7ccdd",
"ZX c #d8d2db",
"AX c #dac6e5",
"SX c #dccbe5",
/* pixels */
"XX(.(.(.(.(.(.(.(.{.(.b.{ [ |.(.(.(.(.(.(.(.(.(.(.(.(.(.(.(.(.XX",
"^.h.h.h.h.h.g.E.XX:Xm.Z % j q.R.h.h.h.h.h.h.h.h.h.h.h.h.h.h.h.^.",
"(.h.h.h.h.h.(. X{.G.S * 4 < W R.R.h.h.h.h.h.h.h.h.h.h.h.h.h.h.(.",
"(.h.h.h.h.g.[.{.w.h o 5 z - a -.R.h.h.h.h.h.h.h.h.h.h.h.h.h.h.(.",
"(.h.h.h.g.(.%XG.n X t 1 l 6 i _ g.R.h.h.h.h.h.h.h.h.h.h.h.h.h.(.",
"(.h.h.R.XX%Xv.h . a 4.$ j c 2 W -.R.h.h.h.h.h.h.h.h.h.h.h.h.h.(.",
"(.h.g.(.%Xs.w . 3 /.V.# f ( 2 K @.y.R.h.h.h.h.h.h.h.h.h.h.h.h.(.",
"(.h.1.].A.V % 7 y.j.G & K l.7 i I =.R.h.h.h.h.h.h.h.h.h.h.h.h.(.",
"(.R.k.6..., 4 q.~.u.A ; W `.c & z ;.R.h.h.h.h.h.h.h.h.h.h.h.h.(.",
"/.{.S...9 & ~ R.R.0.v 5 @.W.7.6 I r.R.h.h.h.h.h.h.h.h.h.h.h.h.(.",
".X*XA.q % ! !.R.,.2.0 a ;.R.g.P W r.R.h.h.h.h.h.h.h.h.h.h.h.h.(.",
"OXa.h w ( !.R.h.<.0.8 f ;.h.E.;.&.&.f.R.h.h.h.h.h.h.h.h.h.h.h.(.",
"8.V ] t.~.R.h.;.&.2.> U ;.R.h.R.R.;.e.R.h.h.h.h.h.h.h.h.h.h.h.(.",
"S.S.t.R.h.h.h.&.` +.; R r.R.h.h.h.h.h.h.h.h.h.h.h.h.h.h.h.h.h.(.",
"@X^.,.h.h.h.g.&.7.X.& I r.R.h.h.h.h.h.h.h.h.h.h.h.h.h.h.h.h.h.(.",
"^.h.h.h.h.R.g.&.7.D & W f.R.h.h.h.g.g.h.R.R.R.h.h.h.h.h.h.h.h.(.",
"(.h.h.h.h.R.r.%.0.S ; / g.R.h.h.E.Q.E.h.>.>.>.g.g.g.g.,.R.R.R.(.",
"[.h.h.h.,.R.;.%.2.M : #.g.R.h.h.[.%X*XP.Y.L.s.w..X|.m.m.q.$.f.).",
"XXE.].{.{.(.*.-.| r 5 &.h.h.h.h.h.^.l.' B.5X8X9XsXkXcXjX4XH.t.).",
"#XXX(.XX+XXXc.e.[ > d h.h.h.h.h.h.h.g.%.&.9.q.0.5.sXkX-XuXwXj.(.",
"%XXX X[.XX|.k.e.C % K !.h.h.h.h.h.g.h.E._./.&.A.<XyX%XF.xXG.,.(.",
".X(.^.l.+XG.z.} y # R '.R.h.h.h.R./.`.b.p.V.6XmXfXm.) yXcXl.g.(.",
"%XF.|.s.3.o.T Y r : R / :.R.R.).].d.4.Z.qXZXNX=Xw.) | vXD.R.h.(.",
";Xa.z.H.m $ 5 { 9 i L : : k $.0.M.>XnXCXzXK.0.q.g.E 2X3Xc.j.h.(.",
"pXV.w > o i W | > s P s f Y M.7XMXbXsX4.J ^ :.R.$.o.vXU.D.#.R.(.",
"1XN   - i k z ] , J @.0.&XJ.0XfXI.| P ) f.R.R.g.^ Y.wXv.0.;.R.(.",
"C.* O a L L P x 6  .#XU.T.N.O.4.! @.g.R.R.h.h.<.u.rXP.i.&.R.h.(.",
"H @ O K I ( g.I ' x.x.E.q.g l t.R.R.R.h.h.R.*._ F.P.K.#.g.R.h.(.",
",Xb O p K P K I K K k s 6 g z.oXE.h.h.h.R.;._ / p.i.0.;.R.h.h.(.",
"BXJ.D e - ; : s u = + & 4 [ %X%X(.,.g.h.h.;.&.;.*.e.*.h.h.h.h.(.",
"AX3X3XeXM.m r n B F Z o.s.|.{.[.{.XX(.g.,.g.g.g.g.R.R.h.h.h.h.^.",
"SXzXdXNXVXhXfXgXfXfXtXaXlXiX;X%X$X@XXX#X%X#XXXXXXXXX[.(.(.(.(.XX"
};
