/* XPM */
static char *magick[] = {
/* columns rows colors chars-per-pixel */
"32 32 253 2",
"   c #1c171e",
".  c #1b1a1b",
"X  c #1e1a21",
"o  c #211b25",
"O  c #2a1c31",
"+  c #301c3a",
"@  c #2c252f",
"#  c #2d2234",
"$  c #312636",
"%  c #332639",
"&  c #33223d",
"*  c #332b37",
"=  c #371f44",
"-  c #362042",
";  c #3a2446",
":  c #3d234b",
">  c #3c2e44",
",  c #3f2b4b",
"<  c #40244f",
"1  c #42294f",
"2  c #472659",
"3  c #452b53",
"4  c #49265b",
"5  c #492f57",
"6  c #4b2b5b",
"7  c #432653",
"8  c #403247",
"9  c #45364d",
"0  c #433a48",
"q  c #463450",
"w  c #4c3757",
"e  c #4f385b",
"r  c #4c3956",
"t  c #50345e",
"y  c #533b5f",
"u  c #4f2763",
"i  c #4e2861",
"p  c #512866",
"a  c #562b6c",
"s  c #582b6f",
"d  c #5d2e76",
"f  c #5f2b7a",
"g  c #553b62",
"h  c #553665",
"j  c #5e3573",
"k  c #622f7c",
"l  c #603576",
"z  c #63337d",
"x  c #603a73",
"c  c #663e7c",
"v  c #4f4355",
"b  c #54485b",
"n  c #574062",
"m  c #5a4564",
"M  c #5f466b",
"N  c #5f5068",
"B  c #634c6f",
"V  c #634274",
"C  c #664379",
"Z  c #654a73",
"A  c #62536b",
"S  c #695175",
"D  c #6f527e",
"F  c #6d5877",
"G  c #735d7f",
"H  c #6a616f",
"J  c #672d86",
"K  c #6d2e8f",
"L  c #6f2f90",
"P  c #663182",
"I  c #693385",
"U  c #6d358a",
"Y  c #6e358d",
"T  c #6c3c85",
"R  c #6f3b8a",
"E  c #712c96",
"W  c #782f9d",
"Q  c #70358f",
"!  c #733593",
"~  c #753c93",
"^  c #773a98",
"/  c #79359d",
"(  c #783d97",
")  c #7a389c",
"_  c #7b3a9d",
"`  c #7a2aa4",
"'  c #7e34a5",
"]  c #7e3ba1",
"[  c #6e4484",
"{  c #72418b",
"}  c #714c85",
"|  c #754a8c",
" . c #764590",
".. c #794295",
"X. c #7c4e94",
"o. c #7e4a99",
"O. c #735284",
"+. c #775688",
"@. c #79538d",
"#. c #7c588e",
"$. c #7e5b91",
"%. c #7b6886",
"&. c #8232ab",
"*. c #8436ad",
"=. c #8233aa",
"-. c #813ba5",
";. c #8439ab",
":. c #853daa",
">. c #873ead",
",. c #853bad",
"<. c #883daf",
"1. c #8632b2",
"2. c #8834b4",
"3. c #8a3eb1",
"4. c #8d3db6",
"5. c #8c3ab7",
"6. c #8f3eb9",
"7. c #8e3ab9",
"8. c #923fbe",
"9. c #903fba",
"0. c #933fc0",
"q. c #824c9d",
"w. c #815697",
"e. c #83549c",
"r. c #835c97",
"t. c #865b9d",
"y. c #8043a0",
"u. c #8641aa",
"i. c #844aa3",
"p. c #8943ad",
"a. c #8b4aae",
"s. c #8e40b6",
"d. c #8b43b2",
"f. c #8f40b9",
"g. c #8e4db0",
"h. c #8951a6",
"j. c #8d52ab",
"k. c #8b5ba4",
"l. c #8e5ba8",
"z. c #8e50b0",
"x. c #9341be",
"c. c #9442bf",
"v. c #9243bc",
"b. c #924db5",
"n. c #954cbc",
"m. c #915cad",
"M. c #9354b4",
"N. c #945cb1",
"B. c #9954bd",
"V. c #985fb5",
"C. c #995aba",
"Z. c #826393",
"A. c #866895",
"S. c #886997",
"D. c #8c6b9e",
"F. c #917a9d",
"G. c #8e64a3",
"H. c #8f68a3",
"J. c #9265aa",
"K. c #9169a5",
"L. c #9662b2",
"P. c #9a63b6",
"I. c #9d63bb",
"U. c #9b6ab4",
"Y. c #9473a5",
"T. c #957ba3",
"R. c #997ca9",
"E. c #9d71b3",
"W. c #9f7cb2",
"Q. c #a06ebb",
"!. c #a074b7",
"~. c #a373bd",
"^. c #a17bb6",
"/. c #a67cbc",
"(. c #9542c1",
"). c #9645c1",
"_. c #9542c2",
"`. c #9749c1",
"'. c #9943c5",
"]. c #9a4ec2",
"[. c #9a4ac4",
"{. c #9f4eca",
"}. c #9c44ca",
"|. c #9b51c2",
" X c #9e56c5",
".X c #9d52c4",
"XX c #9e59c2",
"oX c #a156c7",
"OX c #a15ac6",
"+X c #a25dc6",
"@X c #a461c7",
"#X c #a465c6",
"$X c #a766c9",
"%X c #ab6ccb",
"&X c #a675c0",
"*X c #ae71cd",
"=X c #a978c2",
"-X c #ac78c8",
";X c #b17ecb",
":X c #b174d1",
">X c #b67ed4",
",X c #8e8394",
"<X c #93819d",
"1X c #9f86ab",
"2X c #9f89ac",
"3X c #a086ae",
"4X c #a58bb2",
"5X c #ab8bbb",
"6X c #a584b6",
"7X c #a491af",
"8X c #a59caa",
"9X c #a791b3",
"0X c #ab91b9",
"qX c #af9eb8",
"wX c #aa96b4",
"eX c #b19dbb",
"rX c #aea0b6",
"tX c #b9b3bc",
"yX c #ad81c4",
"uX c #af8bc3",
"iX c #b086c6",
"pX c #b28cc6",
"aX c #b58bcb",
"sX c #b783d2",
"dX c #b494c5",
"fX c #bb96cf",
"gX c #bb98ce",
"hX c #bda2cc",
"jX c #c195d8",
"kX c #c09dd4",
"lX c #c1a8cd",
"zX c #c2a4d1",
"xX c #c5add2",
"cX c #cbaddb",
"vX c #c1b9c6",
"bX c #c4bacb",
"nX c #cbb4d6",
"mX c #cdb4da",
"MX c #d0b0e1",
"NX c #cfcad2",
"BX c #cdc4d2",
"VX c #d1cbd4",
"CX c #d7ccdd",
"ZX c #dad5dc",
"AX c #d8c4e3",
"SX c #e2e0e3",
"DX c #ecebec",
"FX c #eff0ef",
"GX c #f1f1f1",
"HX c #f8f9f7",
"JX c #fdfffb",
"KX c Gray100",
"LX c #fafdf9",
/* pixels */
").c.c.c.c.c.c.c.x.`.c.n.R [ n.(.).4.' ' 6.).x.*.' *.x.6.' ' 4.).",
"c.c.c.c.c.c.x.).OX:XC.Z % j p.(.5.l.eXeXl.7.>.6XqX4X-.j.eXeXJ.5.",
"c.c.c.c.c.c.]. X XI.S * 7 < ! ).1.R.KXKXY.2._ ZXKXSXL K.KXKX4X&.",
"c.c.c.c.c.x..X Xa.g o 4 z - a 3.1.R.KXKXY.2.) VXKXZXK G.JXKX3X&.",
"c.c.c.c.x.].%XI.n X t 1 l 5 i -.&.R.KXKXY.1.) VXKXZXK G.JXKX3X&.",
"c.c.c.(.OX%XN.g . a e.$ j c 7 ! W R.KXKXY.2.) VXKXZXK G.JXKX3X&.",
"c.c.x.].%Xl.w . 2 [.D.# d _ 7 P E R.KXKXD.1.! NXKXZXL G.JXKX3X&.",
"c.c.0.|.G.V % 6 f.v.+.% P n.6 i J Z.KXKXrXf } DXKXBXE G.JXKX3X&.",
"c.(.b.t.O., 3 p.'.g.A ; ! {.c & k U ZXKXKXSXGXKXKXY.` H.KXKX3X&.",
"(. XJ.O.9 % ^ '.(.i.v 4 ] '.y.5 Y *.o.bXGXLXHXSX3X) 5.J.FXGX6X*.",
"].*XG.q % ! '.(.8.q.0 a 3.(.x.U ! s.5.) ..X.X.( =.(.(.p.( ~ u.x.",
" Xk.g w ^ '.(.c.9.i.8 d 3.c.(.3.:.:.v.(.8.8.8.(.(.c.c.(.0.0.(.c.",
"] V } d.'.(.c.3.:.q.> U 3.(.c.(.(.3.d.(.c.(.(.c.c.c.c.c.c.c.c.c.",
"l.J.d.(.c.c.c.:.] $.; Q s.(.c.c.c.c.c.c.c.c.c.c.c.c.c.c.c.c.c.c.",
"OX[.8.c.c.c.x.:.y.+.& Y s.(.c.c.c.c.c.c.c.c.c.c.c.c.c.c.c.c.c.c.",
"8.c.c.c.c.(.x.:.y.D & ! v.(.c.c.c.x.x.c.(.(.(.c.c.c.c.c.c.c.c.c.",
"c.c.c.c.c.(.s.,.i.S ; _ x.(.c.c.).`.).c.6.6.6.8.x.8.8.8.(.(.(.c.",
").c.c.c.8.(.3.;.q.M : -.x.(.c.c..X%X*XQ.^.W.l.g.oXXXC.C.p.;.v.(.",
"].).|. X X].>.<.X.r 4 :.c.c.c.c.c.`.n.{ S.7XwX0XdXkXzXhX6XU.s.(.",
"+XOX].OX@XOXb.d.} > d c.c.c.c.c.c.c.x.,.:.u.p.i.r.dXkX-XaXyXn.x.",
"@XOX X XOXXXb.d.C % P '.c.c.c.c.c.x.c.).[.[.>.G.2XpX%XP.lXI.8.c.",
"].].`.n.#XI.m...g # Q }.(.c.c.c.(.[.{.B.j.D.8XbXfXC.' pXzXn.x.c.",
"#XP.XXl.w.@.R T r : Q _ 4.(.(.[.|.z.e.F.tXZXmX=Xa.' X.xXL.).c.c.",
"%Xk.m.U.m $ 4  .9 i I : : k ,.i.Z.<XvXCXlXE.i.p.x.! 4X5XM.c.c.c.",
">XD.w > o 6 ! X.> s U s f T Z.9XnXcXdXe.J ) 4.(.;.@.xX~.L.-.(.c.",
"^.N   - i k z } , P -.i.~.T.eXfX!.X.U ' v.(.(.x.) ^.yXN.i.3.(.c.",
"%.* O a I I U x 6 o.$X~./.A.#.e.~ -.x.(.(.c.c.9.g.iXQ.h.:.(.c.c.",
"H @ O P Y ^ x.Y { M.M.).p.h l d.(.(.(.c.c.(.>.] P.Q.E.-.x.(.c.c.",
",Xb O p P U P Y P P k s 3 h m.+X).c.c.c.(.3.] _ j.h.i.3.(.c.c.c.",
"nXT.D e - ; : s u = + & 5  .%X%X].8.x.c.c.3.:.3.>.d.>.c.c.c.c.c.",
"AX5X5XuXZ.m r n B F Z @.l.XX X|. XOX].x.8.x.x.x.x.(.(.c.c.c.c.c.",
"AXhXdXcXMXgXaXaXaXaX;XsXjX>X%X@X+X X|.+X$X+X].|.].|.).c.c.c.c.)."
};
